<svg xmlns="http://www.w3.org/2000/svg" viewBox="0 0 1000 1000" fill="none"><path d="M844.1 593.7c-.1-4.5-.2-8.9-.3-13.2-.1-2.2-.2-4.3-.3-6.5-.7-15.1-2-29.5-4-43.4-5.9-41.6-17.3-77.9-34.4-108.8-.8-1.5-1.6-2.9-2.5-4.4-1.3-2.3-2.7-4.6-4.1-6.9-1.2-2-2.4-3.9-3.7-5.8-1.8-2.8-3.6-5.5-5.5-8.1-2.8-4-5.7-7.9-8.7-11.7-1-1.3-2-2.5-3-3.7-2-2.5-4.1-4.9-6.2-7.3a212.277 212.277 0 0 0-13.1-13.7l-5.1-4.8c-2.9-2.7-5.9-5.3-9-7.8-1.7-1.4-3.5-2.9-5.3-4.2-8.1-6.4-16.7-12.2-25.7-17.6-2.7-1.6-5.5-3.2-8.3-4.7-2.8-1.5-5.7-3-8.6-4.5-2.8-1.4-5.7-2.8-8.6-4.2-2.9-1.4-5.8-2.7-8.8-3.9-7.4-3.2-15-6-22.7-8.6-4.7-1.6-9.4-3-14.2-4.4-3.2-.9-6.4-1.8-9.7-2.6-3.3-.8-6.5-1.6-9.8-2.3-8.3-1.8-16.7-3.3-25.4-4.6-5.2-.7-10.4-1.4-15.7-1.9-14.2-1.4-28.8-2.2-43.9-2.2-10.3 0-20.5.3-30.4 1h-.7c-9.9.7-19.6 1.6-29.1 2.9-5.5.7-10.9 1.6-16.3 2.6-2.2.4-4.3.8-6.4 1.2-1.9.4-3.7.7-5.6 1.1-7.4 1.6-14.6 3.3-21.7 5.3-4 1.1-7.9 2.3-11.9 3.5-4.8 1.5-9.5 3.2-14.2 4.9-1.7.6-3.4 1.3-5.1 1.9-11.8 4.6-23.1 9.8-34.1 15.6-.8.4-1.5.8-2.3 1.3-3.6 1.9-7.1 3.9-10.5 6-16.6 9.9-31.7 21.2-45.2 33.7-10.1 9.4-19.4 19.5-27.7 30.3L273.8 54c-48.6 24.7-92.7 57.1-130.5 95.6v700.8c38.7 39.4 83.8 72.4 133.7 97.3v-303c0-6.7.1-13.3.4-19.7.3-6.4.7-12.7 1.3-18.8.3-3.1.6-6.1 1-9.1 3.1-25.3 8.7-48.1 16.9-68.5 1.1-2.8 2.3-5.5 3.5-8.2 1-2.2 2-4.4 3.1-6.5.6-1.2 1.1-2.3 1.7-3.5.5-1 1.1-1.9 1.6-2.9 1.5-2.6 3-5.2 4.5-7.7 1-1.6 1.9-3.1 2.9-4.6 11.8-18.1 25.9-33.7 42.3-46.6 9.5-7.5 19.7-14.1 30.8-19.9 17.6-9.2 36.8-16.2 57.5-20.8 2.6-.6 5.2-1.1 7.8-1.6 4.9-.9 9.8-1.7 14.9-2.4.7-.1 1.4-.2 2.2-.3 7.9-1 15.9-1.7 24.2-2.2 5.7-.3 11.6-.4 17.5-.4 9.9 0 19.4.4 28.6 1.3 34.8 3.3 64.6 13 89.3 29.1 1.3.8 2.6 1.7 3.9 2.6 3.8 2.6 7.5 5.4 11.1 8.4 4.7 3.9 9.3 8.2 13.6 12.7 1.1 1.1 2.2 2.3 3.3 3.4 7.1 7.7 13.4 16.1 18.9 25.3 1.2 1.9 2.3 3.9 3.4 5.9 1.2 2.1 2.3 4.3 3.4 6.6.8 1.5 1.5 3.1 2.2 4.7.6 1.4 1.3 2.7 1.9 4.1 2.9 6.6 5.4 13.5 7.7 20.7.3 1 .6 2.1.9 3.1 1.3 4.2 2.4 8.6 3.4 13 .2.8.4 1.7.6 2.5 1.5 6.6 2.7 13.4 3.7 20.5.1.6.2 1.1.2 1.7 2.1 15.4 3.2 31.8 3.2 49.3V954c49.5-23 94.6-53.9 133.8-91V600.4c-.1-2.3-.1-4.5-.1-6.7z" fill="#fff"/><path d="M143.3 850.4V149.6C54.7 239.8 0 363.5 0 500c0 136.5 54.7 260.2 143.3 350.4zM703.2 544.2c-.2-.8-.4-1.7-.6-2.5-1-4.5-2.2-8.8-3.4-13-.3-1-.6-2.1-.9-3.1-2.2-7.2-4.8-14.1-7.7-20.7-.6-1.4-1.2-2.8-1.9-4.1-.7-1.6-1.5-3.1-2.2-4.7-1.1-2.2-2.2-4.4-3.4-6.6-1.1-2-2.2-3.9-3.4-5.9-5.6-9.2-11.9-17.6-18.9-25.3-1.1-1.2-2.2-2.3-3.3-3.4-4.3-4.5-8.8-8.7-13.6-12.7-3.6-3-7.2-5.7-11.1-8.4-1.3-.9-2.6-1.7-3.9-2.6-24.7-16-54.4-25.7-89.3-29.1-9.2-.9-18.7-1.3-28.6-1.3-5.9 0-11.7.1-17.5.4-8.3.4-16.3 1.1-24.2 2.2-.7.1-1.4.2-2.2.3-5 .7-10 1.5-14.9 2.4-2.6.5-5.2 1-7.8 1.6-20.7 4.6-39.8 11.5-57.5 20.8-11 5.8-21.3 12.4-30.8 19.9-16.4 13-30.5 28.5-42.3 46.6-1 1.5-2 3.1-2.9 4.6-1.5 2.5-3.1 5.1-4.5 7.7-.5 1-1.1 1.9-1.6 2.9-.6 1.1-1.1 2.3-1.7 3.5-1.1 2.1-2.1 4.3-3.1 6.5-1.2 2.7-2.4 5.4-3.5 8.2-8.2 20.4-13.8 43.2-16.9 68.5-.4 3-.7 6-1 9.1-.6 6.1-1 12.4-1.3 18.8-.3 6.4-.4 13-.4 19.7v302.9c67.1 33.5 142.8 52.4 222.9 52.4 75.2 0 146.4-16.6 210.4-46.3v-338c0-17.5-1.1-33.9-3.2-49.3-.1-.6-.2-1.1-.2-1.7-.9-6.8-2.1-13.7-3.6-20.3z" fill="#353961"/><path d="M500 0c-81.4 0-158.2 19.5-226.2 54l2.5 339.2c8.4-10.8 17.6-20.9 27.7-30.3 13.5-12.5 28.6-23.7 45.2-33.7 3.4-2 6.9-4 10.5-6 .8-.4 1.5-.8 2.3-1.3 11-5.9 22.3-11.1 34.1-15.6 1.7-.7 3.4-1.3 5.1-1.9 4.7-1.7 9.4-3.4 14.2-4.9 3.9-1.2 7.9-2.4 11.9-3.5 7.1-2 14.4-3.8 21.7-5.3 1.8-.4 3.7-.8 5.6-1.1 2.1-.4 4.3-.8 6.4-1.2 5.4-1 10.8-1.8 16.3-2.6 9.5-1.3 19.2-2.3 29.1-2.9h.7c9.9-.6 20.1-1 30.4-1 15.1 0 29.7.7 43.9 2.2 5.3.5 10.6 1.2 15.7 1.9 8.6 1.2 17.1 2.8 25.4 4.6 3.3.7 6.6 1.5 9.8 2.3 3.2.8 6.5 1.7 9.7 2.6 4.8 1.4 9.5 2.8 14.2 4.4 7.8 2.6 15.3 5.5 22.7 8.6 3 1.3 5.9 2.6 8.8 3.9 2.9 1.4 5.8 2.8 8.6 4.2 2.9 1.4 5.8 2.9 8.6 4.5 2.8 1.5 5.6 3.1 8.3 4.7 9 5.3 17.6 11.2 25.7 17.6 1.8 1.4 3.6 2.8 5.3 4.2 3.1 2.5 6 5.1 9 7.8l5.1 4.8a211.64 211.64 0 0 1 13.1 13.7c2.1 2.4 4.2 4.8 6.2 7.3 1 1.2 2 2.5 3 3.7 3 3.8 5.9 7.7 8.7 11.7 1.9 2.7 3.7 5.4 5.5 8.1 1.2 1.9 2.5 3.9 3.7 5.8 1.4 2.3 2.8 4.6 4.1 6.9.8 1.4 1.7 2.9 2.5 4.4 17.1 30.9 28.5 67.2 34.4 108.8 2 13.9 3.3 28.4 4 43.4.1 2.2.2 4.3.3 6.5.2 4.4.3 8.8.3 13.2v269c96-91.1 155.9-219.9 155.9-362.7C1000 223.9 776.1 0 500 0z" fill="#353961"/></svg>